<?xml version="1.0" encoding="utf-8"?><!-- Uploaded to: SVG Repo, www.svgrepo.com, Generator: SVG Repo Mixer Tools -->
<svg width="800px" height="800px" viewBox="-0.5 0 25 25" fill="none" xmlns="http://www.w3.org/2000/svg">
<path d="M10.5605 8.41992L13.6205 11.29C13.779 11.4326 13.9056 11.6068 13.9924 11.8015C14.0791 11.9962 14.1239 12.2068 14.1239 12.4199C14.1239 12.633 14.0791 12.8439 13.9924 13.0386C13.9056 13.2332 13.779 13.4075 13.6205 13.55L10.5605 16.4199" stroke="#000000" stroke-width="1.5" stroke-linecap="round" stroke-linejoin="round"/>
<path d="M17 3.41992H7C4.79086 3.41992 3 5.21078 3 7.41992V17.4199C3 19.6291 4.79086 21.4199 7 21.4199H17C19.2091 21.4199 21 19.6291 21 17.4199V7.41992C21 5.21078 19.2091 3.41992 17 3.41992Z" stroke="#000000" stroke-width="1.5" stroke-linecap="round" stroke-linejoin="round"/>
</svg>